<svg xmlns="http://www.w3.org/2000/svg" xmlns:xlink="http://www.w3.org/1999/xlink" width="320" zoomAndPan="magnify" viewBox="0 0 240 239.999995" height="320" preserveAspectRatio="xMidYMid meet" version="1.0"><defs><g/></defs><rect x="-24" width="288" fill="#ffffff" y="-23.999999" height="287.999994" fill-opacity="1"/><rect x="-24" width="288" fill="#5c057b" y="-23.999999" height="287.999994" fill-opacity="1"/><g fill="#ffffff" fill-opacity="1"><g transform="translate(39.434888, 153.152335)"><g><path d="M 5.121094 0 L 5.121094 -64.671875 L 12.394531 -64.671875 L 12.394531 -36.019531 L 64.042969 -36.019531 L 64.042969 -64.671875 L 71.40625 -64.671875 L 71.40625 0 L 64.042969 0 L 64.042969 -28.652344 L 12.394531 -28.652344 L 12.394531 0 Z M 5.121094 0 "/></g></g></g><g fill="#ffffff" fill-opacity="1"><g transform="translate(135.625735, 153.152335)"><g><path d="M 5.210938 0 L 5.210938 -64.671875 L 64.222656 -64.671875 L 64.222656 -57.394531 L 12.484375 -57.394531 L 12.484375 -36.019531 L 54.070312 -36.019531 L 54.070312 -28.652344 L 12.484375 -28.652344 L 12.484375 0 Z M 5.210938 0 "/></g></g></g></svg>